<mxfile host="65bd71144e">
    <diagram id="LHTztWTQGon34FVPqhQL" name="Page-1">
        <mxGraphModel dx="1327" dy="807" grid="1" gridSize="10" guides="1" tooltips="1" connect="1" arrows="1" fold="1" page="1" pageScale="1" pageWidth="850" pageHeight="1100" math="0" shadow="0">
            <root>
                <mxCell id="ipPICgtHkuZkIQtqsmhr-0"/>
                <mxCell id="ipPICgtHkuZkIQtqsmhr-1" parent="ipPICgtHkuZkIQtqsmhr-0"/>
                <mxCell id="TwWjHjo3Izro8mz3eWsv-18" value="ns:ParticipantRole" style="rounded=0;whiteSpace=wrap;html=1;snapToPoint=1;points=[[0.1,0],[0.2,0],[0.3,0],[0.4,0],[0.5,0],[0.6,0],[0.7,0],[0.8,0],[0.9,0],[0,0.1],[0,0.3],[0,0.5],[0,0.7],[0,0.9],[0.1,1],[0.2,1],[0.3,1],[0.4,1],[0.5,1],[0.6,1],[0.7,1],[0.8,1],[0.9,1],[1,0.1],[1,0.3],[1,0.5],[1,0.7],[1,0.9]];" parent="ipPICgtHkuZkIQtqsmhr-1" vertex="1">
                    <mxGeometry x="560" y="550" width="150" height="30" as="geometry"/>
                </mxCell>
                <mxCell id="TwWjHjo3Izro8mz3eWsv-19" value="ns:Event" style="rounded=0;whiteSpace=wrap;html=1;snapToPoint=1;points=[[0.1,0],[0.2,0],[0.3,0],[0.4,0],[0.5,0],[0.6,0],[0.7,0],[0.8,0],[0.9,0],[0,0.1],[0,0.3],[0,0.5],[0,0.7],[0,0.9],[0.1,1],[0.2,1],[0.3,1],[0.4,1],[0.5,1],[0.6,1],[0.7,1],[0.8,1],[0.9,1],[1,0.1],[1,0.3],[1,0.5],[1,0.7],[1,0.9]];" parent="ipPICgtHkuZkIQtqsmhr-1" vertex="1">
                    <mxGeometry x="370" y="420" width="120" height="60" as="geometry"/>
                </mxCell>
                <mxCell id="TwWjHjo3Izro8mz3eWsv-20" value="" style="endArrow=classic;html=1;exitX=1;exitY=0.5;exitDx=0;exitDy=0;entryX=0;entryY=0.5;entryDx=0;entryDy=0;endSize=8;arcSize=0;" parent="ipPICgtHkuZkIQtqsmhr-1" source="TwWjHjo3Izro8mz3eWsv-19" target="TwWjHjo3Izro8mz3eWsv-18" edge="1">
                    <mxGeometry width="50" height="50" relative="1" as="geometry">
                        <mxPoint x="300" y="648.3299999999999" as="sourcePoint"/>
                        <mxPoint x="512.0000000000002" y="648.3299999999999" as="targetPoint"/>
                    </mxGeometry>
                </mxCell>
                <mxCell id="TwWjHjo3Izro8mz3eWsv-21" value="&lt;div&gt;ns:providesParticipantRole&lt;/div&gt;" style="text;html=1;align=center;verticalAlign=middle;resizable=0;points=[];labelBackgroundColor=#ffffff;" parent="TwWjHjo3Izro8mz3eWsv-20" vertex="1" connectable="0">
                    <mxGeometry x="-0.1269" relative="1" as="geometry">
                        <mxPoint x="4.17" as="offset"/>
                    </mxGeometry>
                </mxCell>
                <mxCell id="TwWjHjo3Izro8mz3eWsv-26" value="" style="endArrow=classic;html=1;exitX=0;exitY=0.5;exitDx=0;exitDy=0;entryX=1;entryY=0.5;entryDx=0;entryDy=0;endSize=8;arcSize=0;" parent="ipPICgtHkuZkIQtqsmhr-1" source="TwWjHjo3Izro8mz3eWsv-19" target="TwWjHjo3Izro8mz3eWsv-28" edge="1">
                    <mxGeometry width="50" height="50" relative="1" as="geometry">
                        <mxPoint x="218" y="508.33" as="sourcePoint"/>
                        <mxPoint x="240" y="545" as="targetPoint"/>
                    </mxGeometry>
                </mxCell>
                <mxCell id="TwWjHjo3Izro8mz3eWsv-27" value="&lt;span style=&quot;background-color: rgb(248 , 249 , 250)&quot;&gt;ns:hasSpatiotemporalExtent&lt;br&gt;&lt;/span&gt;" style="text;html=1;align=center;verticalAlign=middle;resizable=0;points=[];labelBackgroundColor=#ffffff;" parent="TwWjHjo3Izro8mz3eWsv-26" vertex="1" connectable="0">
                    <mxGeometry x="-0.1269" relative="1" as="geometry">
                        <mxPoint x="-6" as="offset"/>
                    </mxGeometry>
                </mxCell>
                <mxCell id="TwWjHjo3Izro8mz3eWsv-28" value="ns:SpatiotemporalExtent" style="rounded=0;whiteSpace=wrap;html=1;snapToPoint=1;points=[[0.1,0],[0.2,0],[0.3,0],[0.4,0],[0.5,0],[0.6,0],[0.7,0],[0.8,0],[0.9,0],[0,0.1],[0,0.3],[0,0.5],[0,0.7],[0,0.9],[0.1,1],[0.2,1],[0.3,1],[0.4,1],[0.5,1],[0.6,1],[0.7,1],[0.8,1],[0.9,1],[1,0.1],[1,0.3],[1,0.5],[1,0.7],[1,0.9]];" parent="ipPICgtHkuZkIQtqsmhr-1" vertex="1">
                    <mxGeometry x="113" y="550" width="190" height="30" as="geometry"/>
                </mxCell>
                <mxCell id="1" value="" style="endArrow=classic;html=1;exitX=0.5;exitY=0;exitDx=0;exitDy=0;entryX=1;entryY=0.3;entryDx=0;entryDy=0;endSize=8;arcSize=0;curved=1;edgeStyle=orthogonalEdgeStyle;" edge="1" parent="ipPICgtHkuZkIQtqsmhr-1" source="TwWjHjo3Izro8mz3eWsv-19" target="TwWjHjo3Izro8mz3eWsv-19">
                    <mxGeometry width="50" height="50" relative="1" as="geometry">
                        <mxPoint x="370" y="340" as="sourcePoint"/>
                        <mxPoint x="567" y="340" as="targetPoint"/>
                        <Array as="points">
                            <mxPoint x="430" y="380"/>
                            <mxPoint x="520" y="380"/>
                            <mxPoint x="520" y="438"/>
                        </Array>
                    </mxGeometry>
                </mxCell>
                <mxCell id="2" value="&lt;div&gt;ns:subEventOf&lt;br&gt;&lt;/div&gt;" style="text;html=1;align=center;verticalAlign=middle;resizable=0;points=[];labelBackgroundColor=#ffffff;" vertex="1" connectable="0" parent="1">
                    <mxGeometry x="-0.1269" relative="1" as="geometry">
                        <mxPoint as="offset"/>
                    </mxGeometry>
                </mxCell>
            </root>
        </mxGraphModel>
    </diagram>
</mxfile>